PI_motion
version=1
nRows=202
nColumns=3
inDegrees=yes
endheader
time	r_shoulder_elev	r_elbow_flex
6.75	0	22.34966811
6.76	0	22.3727984
6.77	0	22.39921042
6.78	0	22.42872563
6.79	0	22.46113918
6.8	0	22.49623281
6.81	0	22.53378809
6.82	0	22.57359923
6.83	0	22.61548504
6.84	0	22.65929929
6.85	0	22.70493931
6.86	0	22.75235213
6.87	0	22.80153826
6.88	0	22.85255271
6.89	0	22.90550335
6.9	0	22.96054686
6.91	0	23.01788224
6.92	0	23.07774258
6.93	0	23.14038512
6.94	0	23.2060805
6.95	0	23.27510136
6.96	0	23.34771113
6.97	0	23.42415328
6.98	0	23.50464168
6.99	0	23.58935243
7	0	23.67841743
7.01	0	23.77192013
7.02	0	23.86989341
7.03	0	23.97231975
7.04	0	24.07913373
7.05	0	24.19022645
7.06	0	24.30545198
7.07	0	24.42463525
7.08	0	24.54758112
7.09	0	24.67408419
7.1	0	24.80393891
7.11	0	24.93694949
7.12	0	25.0729391
7.13	0	25.21175812
7.14	0	25.35329085
7.15	0	25.49746057
7.16	0	25.64423255
7.17	0	25.79361507
7.18	0	25.94565833
7.19	0	26.10045128
7.2	0	26.25811669
7.21	0	26.41880456
7.22	0	26.58268427
7.23	0	26.74993592
7.24	0	26.92074112
7.25	0	27.09527381
7.26	0	27.27369149
7.27	0	27.4561272
7.28	0	27.64268277
7.29	0	27.83342352
7.3	0	28.02837459
7.31	0	28.22751928
7.32	0	28.43079923
7.33	0	28.63811649
7.34	0	28.84933746
7.35	0	29.06429839
7.36	0	29.28281218
7.37	0	29.50467622
7.38	0	29.72968088
7.39	0	29.95761817
7.4	0	30.18829027
7.41	0	30.42151747
7.42	0	30.65714507
7.43	0	30.89504916
7.44	0	31.13514066
7.45	0	31.37736781
7.46	0	31.62171667
7.47	0	31.86820987
7.48	0	32.11690355
7.49	0	32.36788264
7.5	0	32.62125563
7.51	0	32.87717636
7.52	0	33.13585106
7.53	0	33.39748594
7.54	0	33.66226918
7.55	0	33.93036016
7.56	0	34.20188009
7.57	0	34.47690452
7.58	0	34.75545806
7.59	0	35.03751158
7.6	0	35.32298186
7.61	0	35.61173387
7.62	0	35.90358551
7.63	0	36.1983144
7.64	0	36.49566673
7.65	0	36.7953674
7.66	0	37.09713117
7.67	0	37.40067417
7.68	0	37.70572534
7.69	0	38.01203709
7.7	0	38.31939481
7.71	0	38.62762469
7.72	0	38.93659951
7.73	0	39.24624215
7.74	0	39.55652661
7.75	0	39.86747653
7.76	0	40.17916134
7.77	0	40.49169015
7.78	0	40.8052038
7.79	0	41.11986539
7.8	0	41.43584976
7.81	0	41.75333258
7.82	0	42.07247932
7.83	0	42.3934349
7.84	0	42.71631437
7.85	0	43.04119511
7.86	0	43.36811084
7.87	0	43.69704786
7.88	0	44.02794357
7.89	0	44.36071246
7.9	0	44.69533553
7.91	0	45.03180854
7.92	0	45.37012652
7.93	0	45.71025637
7.94	0	46.05211167
7.95	0	46.39555459
7.96	0	46.74040024
7.97	0	47.08642328
7.98	0	47.43336643
7.99	0	47.78095033
8	0	48.1288845
8.01	0	48.47687862
8.02	0	48.82465377
8.03	0	49.17195298
8.04	0	49.51855068
8.05	0	49.86426046
8.06	0	50.208941
8.07	0	50.55249962
8.08	0	50.89489359
8.09	0	51.23612893
8.1	0	51.57625693
8.11	0	51.91536848
8.12	0	52.25358665
8.13	0	52.59105768
8.14	0	52.92794111
8.15	0	53.26439932
8.16	0	53.60058706
8.17	0	53.93664152
8.18	0	54.27267339
8.19	0	54.60875923
8.2	0	54.94493562
8.21	0	55.28119534
8.22	0	55.61748561
8.23	0	55.95370858
8.24	0	56.28972391
8.25	0	56.62535343
8.26	0	56.96038745
8.27	0	57.29459252
8.28	0	57.62772024
8.29	0	57.95951667
8.3	0	58.28973181
8.31	0	58.61812888
8.32	0	58.94449274
8.33	0	59.26863727
8.34	0	59.59041116
8.35	0	59.90970205
8.36	0	60.22643874
8.37	0	60.54059139
8.38	0	60.8521698
8.39	0	61.16121981
8.4	0	61.46781809
8.41	0	61.77206558
8.42	0	62.07407983
8.43	0	62.37398684
8.44	0	62.67191257
8.45	0	62.96797465
8.46	0	63.2622747
8.47	0	63.55489153
8.48	0	63.84587564
8.49	0	64.1352451
8.5	0	64.42298316
8.51	0	64.70903747
8.52	0	64.99332115
8.53	0	65.27571539
8.54	0	65.55607353
8.55	0	65.83422649
8.56	0	66.10998911
8.57	0	66.38316715
8.58	0	66.65356461
8.59	0	66.92099109
8.6	0	67.18526868
8.61	0	67.44623819
8.62	0	67.70376444
8.63	0	67.95774031
8.64	0	68.20808942
8.65	0	68.45476736
8.66	0	68.69776144
8.67	0	68.93708894
8.68	0	69.17279413
8.69	0	69.404944
8.7	0	69.63362324
8.71	0	69.85892837
8.72	0	70.08096168
8.73	0	70.29982496
8.74	0	70.51561358
8.75	0	70.72841099
8.76	0	70.93828403
